<svg xmlns="http://www.w3.org/2000/svg" width="200" height="50" viewBox="0 0 200 50">
  <!-- Chair Icon -->
  <g transform="translate(0, 5) scale(1.2)">
    <path d="M19 9V6a2 2 0 0 0-2-2H7a2 2 0 0 0-2 2v3" fill="none" stroke="#0066cc" stroke-width="2" stroke-linecap="round" stroke-linejoin="round"/>
    <path d="M3 11v5a2 2 0 0 0 2 2h14a2 2 0 0 0 2-2v-5a2 2 0 0 0-4 0v2H7v-2a2 2 0 0 0-4 0Z" fill="none" stroke="#0066cc" stroke-width="2" stroke-linecap="round" stroke-linejoin="round"/>
    <path d="M5 18v2" fill="none" stroke="#0066cc" stroke-width="2" stroke-linecap="round" stroke-linejoin="round"/>
    <path d="M19 18v2" fill="none" stroke="#0066cc" stroke-width="2" stroke-linecap="round" stroke-linejoin="round"/>
  </g>
  
  <!-- Text: Massage Chair Guide -->
  <text x="35" y="25" font-family="Arial, sans-serif" font-size="16" font-weight="bold" fill="#333333">Massage Chair</text>
  <text x="35" y="42" font-family="Arial, sans-serif" font-size="14" fill="#0066cc">Guide</text>
</svg>